<?xml version="1.0" encoding="utf-8"?>
<!-- Generator: Adobe Illustrator 16.0.0, SVG Export Plug-In . SVG Version: 6.00 Build 0)  -->
<!DOCTYPE svg PUBLIC "-//W3C//DTD SVG 1.1//EN" "http://www.w3.org/Graphics/SVG/1.1/DTD/svg11.dtd">
<svg version="1.1" id="图层_2" xmlns="http://www.w3.org/2000/svg" xmlns:xlink="http://www.w3.org/1999/xlink" x="0px" y="0px"
	 width="2500px" height="1809px" viewBox="0 0 2500 1809" style="enable-background:new 0 0 2500 1809;" xml:space="preserve">
<polygon style="opacity:0.2;fill:#06DDF9;" points="1229,712.3 1234.3,745.3 1252.7,740.7 "/>
<polygon style="opacity:0.3;fill:#06DDF9;" points="1226.3,718.7 1244.3,739.7 1229,739.7 "/>
<polygon style="opacity:0.3;fill:#06DDF9;" points="1238.3,698.7 1252.7,743 1274.7,734 "/>
<polygon style="opacity:0.4;fill:#06DDF9;" points="1244.3,701.7 1254.3,739.7 1270.7,726.3 "/>
<polygon style="opacity:0.35;fill:#06DDF9;" points="1287.3,698.7 1284.8,742 1300.9,750.8 "/>
<polygon style="opacity:0.3;fill:#06DDF9;" points="1283.8,695.7 1288,742.4 1306.1,750.8 "/>
<polygon style="opacity:0.3;fill:#06DDF9;" points="1294.9,751.9 1325.3,820.1 1310.6,761.8 "/>
<polygon style="opacity:0.25;fill:#06DDF9;" points="1240.8,747.6 1299.9,775.3 1281.9,745.3 "/>
<polygon style="opacity:0.25;fill:#06DDF9;" points="1239.4,753.6 1269,769 1231.1,848.4 "/>
<polygon style="opacity:0.25;fill:#06DDF9;" points="1221.5,743 1222.3,772.2 1231.6,744.8 "/>
<polygon style="opacity:0.4;fill:#06DDF9;" points="1219.9,746.9 1221.5,774.8 1229.7,745.7 "/>
<polygon style="opacity:0.3;fill:#06DDF9;" points="1215.1,769.1 1229.7,764.1 1219,807.9 "/>
<polygon style="opacity:0.3;fill:#06DDF9;" points="1207.3,790.3 1222.4,779.1 1216.3,815.9 "/>
<polygon style="opacity:0.3;fill:#06DDF9;" points="1201.8,806.1 1213.3,789.6 1218.9,845.5 "/>
<polygon style="opacity:0.3;fill:#06DDF9;" points="1205.4,823.6 1218.3,821 1224.8,862.6 "/>
<polygon style="opacity:0.2;fill:#06DDF9;" points="1209.1,853.9 1230.3,878.3 1213.5,889.6 "/>
<polygon style="opacity:0.35;fill:#06DDF9;" points="1205.4,863.3 1229.1,888.9 1210.3,898.3 "/>
<polygon style="opacity:0.3;fill:#06DDF9;" points="1215.1,894.6 1227.6,929.8 1232.4,903.1 "/>
<polygon style="opacity:0.2;fill:#06DDF9;" points="1216,908.4 1254.6,925.8 1230.3,934.6 "/>
<polygon style="opacity:0.2;fill:#06DDF9;" points="1282.9,862 1267.1,918.9 1300.5,900.6 "/>
<polygon style="opacity:0.3;fill:#06DDF9;" points="1229.1,934.6 1181.6,961.9 1171,986.6 "/>
<polygon style="opacity:0.2;fill:#06DDF9;" points="1139.5,978 1177.6,963.6 1166.8,984.8 "/>
<polygon style="opacity:0.3;fill:#06DDF9;" points="1139.5,982.1 1175.8,970.5 1172,979.5 "/>
<polygon style="opacity:0.2;fill:#06DDF9;" points="1165.5,987.3 1115.3,1009.1 1150.1,1013.1 "/>
<polygon style="opacity:0.3;fill:#06DDF9;" points="1121.3,1013.1 1165.5,994.3 1144.4,1017.1 "/>
<polygon style="opacity:0.2;fill:#06DDF9;" points="1089.6,1036.9 1141.1,1019.9 1112.1,1042 "/>
<polygon style="opacity:0.3;fill:#06DDF9;" points="1087,1043 1133.5,1020.5 1103.4,1046.1 "/>
<polygon style="opacity:0.2;fill:#06DDF9;" points="1152.6,1018.5 1097.5,1055.4 1134.9,1042 "/>
<polygon style="opacity:0.3;fill:#06DDF9;" points="1101.3,1043.4 1022.6,1080.9 1133.5,1055.8 "/>
<polygon style="opacity:0.2;fill:#06DDF9;" points="1089.6,1055.9 1019.9,1097.1 1094.9,1061.1 "/>
<polygon style="opacity:0.2;fill:#06DDF9;" points="1019.9,1105.3 1096.4,1065.1 1100.9,1076.5 "/>
<polygon style="opacity:0.2;fill:#06DDF9;" points="1097.5,1075.4 1072.5,1100.9 1129.4,1064.5 "/>
<polygon style="opacity:0.2;fill:#06DDF9;" points="1107.5,1070.1 1080.6,1105.3 1124.4,1063.1 "/>
<polygon style="opacity:0.15;fill:#06DDF9;" points="1131.8,1063.1 1122.8,1091.4 1162.4,1066.5 "/>
<polygon style="opacity:0.3;fill:#06DDF9;" points="1141.1,1062.1 1131.5,1090.3 1167,1064.5 "/>
<polygon style="opacity:0.3;fill:#06DDF9;" points="1156.8,1022.8 1138.1,1055.4 1156.8,1051.5 "/>
<polygon style="opacity:0.2;fill:#06DDF9;" points="1210.4,1025.4 1171.9,1060.5 1215.8,1037.5 "/>
<polygon style="opacity:0.2;fill:#06DDF9;" points="1212.6,1024.5 1258.8,995.9 1218.6,1036.9 "/>
<polygon style="opacity:0.2;fill:#06DDF9;" points="1223.8,974.2 1181.3,1022.1 1240,988.3 "/>
<polygon style="opacity:0.3;fill:#06DDF9;" points="1139.5,1030.9 1192.6,986.6 1225.4,970.5 "/>
<polygon style="opacity:0.15;fill:#06DDF9;" points="1168.4,999 1230.4,952.6 1205.8,984.8 "/>
<polygon style="opacity:0.3;fill:#06DDF9;" points="1237,948 1209.3,984.1 1252.6,949.8 "/>
<polygon style="opacity:0.2;fill:#06DDF9;" points="1255.6,937.1 1230.4,960.6 1292.9,923.3 "/>
<polygon style="opacity:0.3;fill:#06DDF9;" points="1270.3,928.8 1254.6,951 1301.9,927.8 "/>
<polygon style="opacity:0.2;fill:#06DDF9;" points="1303.6,941.9 1281,963.6 1347.4,976.9 "/>
<polygon style="opacity:0.3;fill:#06DDF9;" points="1267.8,996.5 1352.6,1032.6 1288.1,1021.5 "/>
<polygon style="opacity:0.15;fill:#06DDF9;" points="1271.9,989.1 1297.5,1027.5 1324.5,1037.6 "/>
<polygon style="opacity:0.3;fill:#06DDF9;" points="1320,925 1312.5,944.3 1338.8,929.8 "/>
<polygon style="opacity:0.15;fill:#06DDF9;" points="1314.2,910.5 1292.9,921.5 1347.4,910.5 "/>
<polygon style="opacity:0.3;fill:#06DDF9;" points="1325.6,918.9 1335.3,908.4 1296.5,923.3 "/>
<polyline style="opacity:0.3;fill:#06DDF9;" points="1310.1,797.5 1310.6,798.2 1333,830.3 1333,893.5 "/>
<polygon style="opacity:0.2;fill:#06DDF9;" points="1307.5,832.3 1325.6,833.3 1321.5,890.4 "/>
<polygon style="opacity:0.2;fill:#06DDF9;" points="1329.3,862 1325.6,898.3 1348.3,904.5 "/>
<polygon style="opacity:0.2;fill:#06DDF9;" points="1359.3,904.1 1355.7,912.8 1381.5,904.5 "/>
<polygon style="opacity:0.3;fill:#06DDF9;" points="1353.7,905.8 1355.7,921 1367.2,907.3 "/>
<path style="opacity:0.3;fill:#06DDF9;" d="M1360.4,903c0.8,0,35.4-2.8,35.4-2.8l-8.7-4L1360.4,903z"/>
<polygon style="opacity:0.2;fill:#06DDF9;" points="1391.6,894.8 1378.1,898.5 1407.9,897.6 "/>
<polygon style="opacity:0.3;fill:#06DDF9;" points="1393,897.5 1409,893.5 1417.1,899.6 "/>
<polygon style="opacity:0.15;fill:#06DDF9;" points="1406.8,894.8 1423.3,907.1 1421.3,900.9 "/>
<polygon style="opacity:0.3;fill:#06DDF9;" points="1419,903 1422.1,916.6 1423.3,906.4 "/>
<polygon style="opacity:0.3;fill:#06DDF9;" points="1406,909.8 1415,908.4 1414.3,915.1 "/>
<polygon style="opacity:0.3;fill:#06DDF9;" points="1407.3,916.6 1415,924.3 1406.8,921 "/>
<polygon style="opacity:0.2;fill:#06DDF9;" points="1414.1,920.4 1413.4,929.5 1421.1,917.1 "/>
<polygon style="opacity:0.15;fill:#06DDF9;" points="1406,922.5 1420.6,921.5 1413.3,931.1 "/>
<polygon style="opacity:0.15;fill:#06DDF9;" points="1403.4,909.8 1400.4,915.8 1394.5,915.1 "/>
<polygon style="opacity:0.15;fill:#06DDF9;" points="1394.5,916.6 1395.8,925.6 1400.4,917.1 "/>
<polygon style="opacity:0.2;fill:#06DDF9;" points="1394.5,921.5 1402.4,930.1 1397.4,933.5 "/>
<polygon style="opacity:0.15;fill:#06DDF9;" points="1397.4,928.9 1407.9,927.5 1397.4,932.5 "/>
<polygon style="opacity:0.2;fill:#06DDF9;" points="1394.5,926.3 1390.6,934.6 1396.4,933.5 "/>
<polygon style="opacity:0.2;fill:#06DDF9;" points="1391.4,917.8 1390.6,932.5 1378.1,941.4 "/>
<polygon style="opacity:0.2;fill:#06DDF9;" points="1369.3,936.4 1389.5,937 1376,943.1 "/>
<polygon style="opacity:0.2;fill:#06DDF9;" points="1359.8,927.8 1385.9,954 1361,947.5 "/>
<polygon style="opacity:0.2;fill:#06DDF9;" points="1390.6,902.1 1370.3,913.4 1392.4,913.4 "/>
<polygon style="opacity:0.2;fill:#06DDF9;" points="1371.4,908.5 1358.8,923.3 1390.6,915.9 "/>
<polygon style="opacity:0.7;fill:#06DDF9;" points="1402.7,914 1403.9,916.6 1405.1,914 "/>
<polygon style="opacity:0.2;fill:#06DDF9;" points="1367.2,941.9 1366.4,970.1 1417.3,968.8 "/>
<polygon style="opacity:0.3;fill:#06DDF9;" points="1418.4,970.9 1457.5,1017.5 1456.3,994.2 "/>
<polygon style="opacity:0.3;fill:#06DDF9;" points="1458.4,996.5 1461.3,1020.1 1512.5,1026.3 "/>
<polygon style="opacity:0.2;fill:#06DDF9;" points="1452.5,1028.8 1522.8,1022.1 1479,1053 "/>
<polygon style="opacity:0.3;fill:#06DDF9;" points="1475.5,1029.3 1493,1050.8 1507.8,1029.3 "/>
<polygon style="opacity:0.2;fill:#06DDF9;" points="1469,1034.5 1457.5,1042.9 1473.8,1060.5 "/>
<polygon style="opacity:0.3;fill:#06DDF9;" points="1366.4,1011.4 1409,1047.5 1452.5,1033.5 "/>
<polygon style="opacity:0.3;fill:#06DDF9;" points="1307.5,1031.3 1350.3,1042.9 1333,1046.5 "/>
<polygon style="opacity:0.15;fill:#06DDF9;" points="1335.3,1031.3 1367.2,1055.5 1401.5,1050.8 "/>
<polygon style="opacity:0.3;fill:#06DDF9;" points="1369.3,1048.8 1389.5,1057.8 1405.1,1053 "/>
<polygon style="opacity:0.2;fill:#06DDF9;" points="1410.9,1053 1475.5,1041.3 1463.8,1057.8 "/>
<polygon style="opacity:0.3;fill:#06DDF9;" points="1413.4,1055.5 1448,1048.8 1430.7,1059.5 "/>
</svg>
